<svg xmlns="http://www.w3.org/2000/svg" width="24" height="24" viewBox="0 0 48 48">
  <g>
    <path fill="#4285F4" d="M43.611 20.083H42V20H24v8h11.303C34.73 32.364 29.816 36 24 36c-6.627 0-12-5.373-12-12s5.373-12 12-12c2.938 0 5.624 1.044 7.747 2.764l6.571-6.571C34.583 5.163 29.617 3 24 3 12.954 3 4 11.954 4 23s8.954 20 20 20c11.045 0 19.5-7.955 19.5-19.5 0-1.3-.138-2.567-.389-3.833z"/>
    <path fill="#34A853" d="M6.306 14.691l6.571 4.822C14.655 16.104 19.001 13 24 13c2.938 0 5.624 1.044 7.747 2.764l6.571-6.571C34.583 5.163 29.617 3 24 3c-7.732 0-14.37 4.41-17.694 10.691z"/>
    <path fill="#FBBC05" d="M24 44c5.617 0 10.583-1.863 14.306-5.091l-6.627-5.428C29.624 35.956 26.938 37 24 37c-5.797 0-10.707-3.627-12.303-8.617l-6.571 5.071C9.63 41.59 16.268 44 24 44z"/>
    <path fill="#EA4335" d="M43.611 20.083H42V20H24v8h11.303c-1.022 2.73-3.23 5.01-6.303 6.481l.001-.001 6.627 5.428C39.37 41.59 46 36.5 46 24c0-1.3-.138-2.567-.389-3.833z"/>
  </g>
</svg> 